<svg width="20" height="20" viewBox="0 0 20 20" fill="none" xmlns="http://www.w3.org/2000/svg">
<path d="M7.69928 17.039L7.69931 17.039L7.69564 17.0343C7.55281 16.8494 7.35354 16.7065 7.16111 16.6103C6.96956 16.5145 6.73469 16.44 6.5 16.44H5C2.51418 16.44 0.5 14.4319 0.5 11.96V4.98C0.5 2.5081 2.51418 0.5 5 0.5H15C17.4858 0.5 19.5 2.5081 19.5 4.98V11.96C19.5 14.4319 17.4858 16.44 15 16.44H13.5C13.0314 16.44 12.585 16.6649 12.3019 17.0375L12.3007 17.039L10.8007 19.029L10.8 19.03C10.5506 19.3626 10.2559 19.49 10 19.49C9.74414 19.49 9.44944 19.3626 9.2 19.03L9.19928 19.029L7.69928 17.039ZM4.5 9C4.5 9.82287 5.1606 10.5 6 10.5C6.8394 10.5 7.5 9.82287 7.5 9C7.5 8.17386 6.82614 7.5 6 7.5C5.17386 7.5 4.5 8.17386 4.5 9ZM8.5 9C8.5 9.82287 9.1606 10.5 10 10.5C10.8394 10.5 11.5 9.82287 11.5 9C11.5 8.17386 10.8261 7.5 10 7.5C9.17386 7.5 8.5 8.17386 8.5 9ZM12.5 9C12.5 9.82287 13.1606 10.5 14 10.5C14.8394 10.5 15.5 9.82287 15.5 9C15.5 8.17386 14.8261 7.5 14 7.5C13.1739 7.5 12.5 8.17386 12.5 9Z" fill="white" stroke="black"/>
</svg>
